<svg id="visual" viewBox="0 0 900 600" width="900" height="600" xmlns="http://www.w3.org/2000/svg" xmlns:xlink="http://www.w3.org/1999/xlink" version="1.1"><path d="M0 538L21.5 534.2C43 530.3 86 522.7 128.8 517.2C171.7 511.7 214.3 508.3 257.2 509.5C300 510.7 343 516.3 385.8 520.8C428.7 525.3 471.3 528.7 514.2 529.5C557 530.3 600 528.7 642.8 529.8C685.7 531 728.3 535 771.2 531.8C814 528.7 857 518.3 878.5 513.2L900 508L900 601L878.5 601C857 601 814 601 771.2 601C728.3 601 685.7 601 642.8 601C600 601 557 601 514.2 601C471.3 601 428.7 601 385.8 601C343 601 300 601 257.2 601C214.3 601 171.7 601 128.8 601C86 601 43 601 21.5 601L0 601Z" fill="#fa7268"></path><path d="M0 539L21.5 540.7C43 542.3 86 545.7 128.8 543.5C171.7 541.3 214.3 533.7 257.2 532C300 530.3 343 534.7 385.8 536.8C428.7 539 471.3 539 514.2 536C557 533 600 527 642.8 525.5C685.7 524 728.3 527 771.2 526.8C814 526.7 857 523.3 878.5 521.7L900 520L900 601L878.5 601C857 601 814 601 771.2 601C728.3 601 685.7 601 642.8 601C600 601 557 601 514.2 601C471.3 601 428.7 601 385.8 601C343 601 300 601 257.2 601C214.3 601 171.7 601 128.8 601C86 601 43 601 21.5 601L0 601Z" fill="#ef5f67"></path><path d="M0 548L21.5 548.5C43 549 86 550 128.8 548.7C171.7 547.3 214.3 543.7 257.2 545C300 546.3 343 552.7 385.8 553.5C428.7 554.3 471.3 549.7 514.2 546.2C557 542.7 600 540.3 642.8 542C685.7 543.7 728.3 549.3 771.2 551.3C814 553.3 857 551.7 878.5 550.8L900 550L900 601L878.5 601C857 601 814 601 771.2 601C728.3 601 685.7 601 642.8 601C600 601 557 601 514.2 601C471.3 601 428.7 601 385.8 601C343 601 300 601 257.2 601C214.3 601 171.7 601 128.8 601C86 601 43 601 21.5 601L0 601Z" fill="#e34c67"></path><path d="M0 572L21.5 572.3C43 572.7 86 573.3 128.8 570.3C171.7 567.3 214.3 560.7 257.2 559.3C300 558 343 562 385.8 563.5C428.7 565 471.3 564 514.2 565.7C557 567.3 600 571.7 642.8 572.3C685.7 573 728.3 570 771.2 569.5C814 569 857 571 878.5 572L900 573L900 601L878.5 601C857 601 814 601 771.2 601C728.3 601 685.7 601 642.8 601C600 601 557 601 514.2 601C471.3 601 428.7 601 385.8 601C343 601 300 601 257.2 601C214.3 601 171.7 601 128.8 601C86 601 43 601 21.5 601L0 601Z" fill="#d53867"></path><path d="M0 587L21.5 585C43 583 86 579 128.8 577.2C171.7 575.3 214.3 575.7 257.2 575.8C300 576 343 576 385.8 575.5C428.7 575 471.3 574 514.2 573.7C557 573.3 600 573.7 642.8 574.2C685.7 574.7 728.3 575.3 771.2 576.3C814 577.3 857 578.7 878.5 579.3L900 580L900 601L878.5 601C857 601 814 601 771.2 601C728.3 601 685.7 601 642.8 601C600 601 557 601 514.2 601C471.3 601 428.7 601 385.8 601C343 601 300 601 257.2 601C214.3 601 171.7 601 128.8 601C86 601 43 601 21.5 601L0 601Z" fill="#c62368"></path></svg>