<svg id="visual" viewBox="0 0 900 600" width="900" height="600" xmlns="http://www.w3.org/2000/svg" xmlns:xlink="http://www.w3.org/1999/xlink" version="1.1"><path d="M0 380L21.5 388.8C43 397.7 86 415.3 128.8 417.2C171.7 419 214.3 405 257.2 406.7C300 408.3 343 425.7 385.8 421.2C428.7 416.7 471.3 390.3 514.2 387.5C557 384.7 600 405.3 642.8 408.3C685.7 411.3 728.3 396.7 771.2 393.8C814 391 857 400 878.5 404.5L900 409L900 601L878.5 601C857 601 814 601 771.2 601C728.3 601 685.7 601 642.8 601C600 601 557 601 514.2 601C471.3 601 428.7 601 385.8 601C343 601 300 601 257.2 601C214.3 601 171.7 601 128.8 601C86 601 43 601 21.5 601L0 601Z" fill="#fa7268"></path><path d="M0 474L21.5 469.8C43 465.7 86 457.3 128.8 453.2C171.7 449 214.3 449 257.2 445.3C300 441.7 343 434.3 385.8 432.5C428.7 430.7 471.3 434.3 514.2 441.3C557 448.3 600 458.7 642.8 459.5C685.7 460.3 728.3 451.7 771.2 445.3C814 439 857 435 878.5 433L900 431L900 601L878.5 601C857 601 814 601 771.2 601C728.3 601 685.7 601 642.8 601C600 601 557 601 514.2 601C471.3 601 428.7 601 385.8 601C343 601 300 601 257.2 601C214.3 601 171.7 601 128.8 601C86 601 43 601 21.5 601L0 601Z" fill="#ef5f67"></path><path d="M0 450L21.5 459.3C43 468.7 86 487.3 128.8 496C171.7 504.7 214.3 503.3 257.2 501.3C300 499.3 343 496.7 385.8 487C428.7 477.3 471.3 460.7 514.2 457.8C557 455 600 466 642.8 472.7C685.7 479.3 728.3 481.7 771.2 487.3C814 493 857 502 878.5 506.5L900 511L900 601L878.5 601C857 601 814 601 771.2 601C728.3 601 685.7 601 642.8 601C600 601 557 601 514.2 601C471.3 601 428.7 601 385.8 601C343 601 300 601 257.2 601C214.3 601 171.7 601 128.8 601C86 601 43 601 21.5 601L0 601Z" fill="#e34c67"></path><path d="M0 507L21.5 504.7C43 502.3 86 497.7 128.8 496C171.7 494.3 214.3 495.7 257.2 497C300 498.3 343 499.7 385.8 499.8C428.7 500 471.3 499 514.2 497.3C557 495.7 600 493.3 642.8 492.5C685.7 491.7 728.3 492.3 771.2 499.5C814 506.7 857 520.3 878.5 527.2L900 534L900 601L878.5 601C857 601 814 601 771.2 601C728.3 601 685.7 601 642.8 601C600 601 557 601 514.2 601C471.3 601 428.7 601 385.8 601C343 601 300 601 257.2 601C214.3 601 171.7 601 128.8 601C86 601 43 601 21.5 601L0 601Z" fill="#d53867"></path><path d="M0 549L21.5 550.7C43 552.3 86 555.7 128.8 554.3C171.7 553 214.3 547 257.2 549.3C300 551.7 343 562.3 385.8 565.3C428.7 568.3 471.3 563.7 514.2 563C557 562.3 600 565.7 642.8 567.3C685.7 569 728.3 569 771.2 569.8C814 570.7 857 572.3 878.5 573.2L900 574L900 601L878.5 601C857 601 814 601 771.2 601C728.3 601 685.7 601 642.8 601C600 601 557 601 514.2 601C471.3 601 428.7 601 385.8 601C343 601 300 601 257.2 601C214.3 601 171.7 601 128.8 601C86 601 43 601 21.5 601L0 601Z" fill="#c62368"></path></svg>